# xmcd CD database file
#
# Track frame offsets:
#	187
#	22370
#	38887
#	62960
#	84965
#	106120
#	127802
#	147057
#	165625
#	183632
#	203350
#	224320
#	246230
#	267932
#	286645
#	306690
#
# Disc length: 4414 seconds
#
# Revision: 0
# Processed by: cddbd v1.5.1PL0 Copyright (c) Steve Scherf et al.
# Submitted via: CDex 1.51
#
DISCID=e5113c10
DTITLE=やしきたかじん - なめとんか−やしきたかじんスーパー・ベスト−　
DYEAR=90
DGENRE=New Age
TTITLE0=なめとんか
TTITLE1=愛したあとからメランコリー
TTITLE2=順子
TTITLE3=ICHIZU
TTITLE4=ゆめいらんかね
TTITLE5=哀しみのアゲイン
TTITLE6=未練〜STILL〜
TTITLE7=黄昏Solitude
TTITLE8=雨の吐息
TTITLE9=ラブ・イズ・オーヴァー
TTITLE10=ついてくよ
TTITLE11=My　Friend
TTITLE12=愛することを学ぶのに
TTITLE13=あんた
TTITLE14=やっぱ好きやねん
TTITLE15=大阪恋物語
EXTD=YEAR: 90
EXTT0=
EXTT1=
EXTT2=
EXTT3=
EXTT4=
EXTT5=
EXTT6=
EXTT7=
EXTT8=
EXTT9=
EXTT10=
EXTT11=
EXTT12=
EXTT13=
EXTT14=
EXTT15=
PLAYORDER=
